<svg width="50" height="55" viewBox="0 0 50 55" fill="none" xmlns="http://www.w3.org/2000/svg">
<path d="M30.5588 0H19.4496C17.9221 0 16.6723 1.17857 16.6723 2.61905C16.6723 4.05952 17.9221 5.2381 19.4496 5.2381H30.5588C32.0863 5.2381 33.3361 4.05952 33.3361 2.61905C33.3361 1.17857 32.0863 0 30.5588 0ZM25.0042 34.0476C26.5317 34.0476 27.7815 32.869 27.7815 31.4286V20.9524C27.7815 19.5119 26.5317 18.3333 25.0042 18.3333C23.4767 18.3333 22.2269 19.5119 22.2269 20.9524V31.4286C22.2269 32.869 23.4767 34.0476 25.0042 34.0476ZM44.5287 16.7357L46.6117 14.7714C47.6671 13.7762 47.6948 12.1262 46.6117 11.1048L46.5839 11.0786C45.5008 10.0571 43.7788 10.0833 42.6957 11.0786L40.6127 13.0429C36.3079 9.79524 30.8921 7.85714 25.0042 7.85714C11.6731 7.85714 0.341692 18.2286 0.00841487 30.8C-0.352635 44.1048 10.951 55 25.0042 55C38.8352 55 50 44.4452 50 31.4286C50 25.8762 47.9448 20.769 44.5287 16.7357ZM25.0042 49.7619C14.256 49.7619 5.56304 41.5643 5.56304 31.4286C5.56304 21.2929 14.256 13.0952 25.0042 13.0952C35.7524 13.0952 44.4454 21.2929 44.4454 31.4286C44.4454 41.5643 35.7524 49.7619 25.0042 49.7619Z" fill="#FF9B06"/>
</svg>
