<svg width="100" height="100" viewBox="0 0 100 100" fill="none" xmlns="http://www.w3.org/2000/svg">
<path fill-rule="evenodd" clip-rule="evenodd" d="M34.1264 19.9797L35.7664 17.0398L35.7764 17.0218C42.1048 5.67394 45.269 0 50.0015 0C54.7341 0 57.8983 5.67393 64.2267 17.0218L64.2367 17.0398L65.8717 19.9797C67.6717 23.2097 68.5717 24.8247 69.9718 25.8896C71.3757 26.9538 73.1241 27.349 76.6139 28.1378L76.6218 28.1396L79.8018 28.8596C92.102 31.6396 98.2521 33.0346 99.7121 37.7395C101.177 42.4444 96.987 47.3494 88.6019 57.1492L86.4319 59.6842C84.0469 62.4692 82.8569 63.8641 82.3219 65.5841C81.7886 67.3035 81.9657 69.1571 82.3185 72.8483L82.3219 72.884L82.4219 73.834C82.4203 73.8344 82.4187 73.8348 82.4171 73.8351L82.6571 76.2694L82.6596 76.2955C83.9229 89.3629 84.5545 95.8961 80.722 98.8041C76.897 101.704 71.1369 99.0541 59.6218 93.7542L56.6468 92.3842C53.3718 90.8742 51.7367 90.1242 50.0017 90.1242C48.2667 90.1242 46.6317 90.8742 43.3616 92.3842L40.3766 93.7542C28.8665 99.0591 23.1064 101.709 19.2764 98.7991C15.4489 95.8961 16.0805 89.3629 17.3438 76.2955L17.3464 76.2694L17.6764 72.8844C18.0364 69.1695 18.2164 67.3095 17.6814 65.5845C17.148 63.8698 15.9586 62.4781 13.5931 59.7101L13.5713 59.6846L11.4013 57.1497C3.01621 47.3448 -1.17384 42.4398 0.286178 37.7399C1.75036 33.0377 7.89424 31.6466 20.1803 28.8648L20.2014 28.86L23.3764 28.14L23.3765 28.14C26.8765 27.35 28.6265 26.9551 30.0265 25.8901C30.0451 25.8759 30.0635 25.8617 30.0819 25.8474C30.0635 25.8616 30.045 25.8757 30.0263 25.8896C31.4263 24.8247 32.3263 23.2097 34.1263 19.9798L34.1264 19.9797ZM30.5027 25.4892C30.5325 25.4615 30.562 25.4336 30.5912 25.4054C30.5912 25.4051 30.5913 25.4049 30.5913 25.4047C30.5619 25.4332 30.5324 25.4614 30.5027 25.4892Z" fill="#FBBC05"/>
</svg>
