<svg width="25" height="25" viewBox="0 0 25 25" fill="none" xmlns="http://www.w3.org/2000/svg">
<path d="M0.545 3.84141C1.49012e-07 4.46805 0 5.54445 0 7.69472V19.5629C0 21.0866 7.45058e-08 21.8484 0.39375 22.422C0.78625 22.9955 1.47375 23.2369 2.84875 23.7182L4.46625 24.2855C5.3425 24.5925 6.01625 24.8287 6.5825 24.9803C6.9525 25.0801 7.29125 24.787 7.29125 24.4004V5.26019C7.28693 5.10676 7.23246 4.95909 7.13635 4.84024C7.04025 4.72139 6.90791 4.63805 6.76 4.60323C6.27375 4.47815 5.68875 4.27349 4.8875 3.99302C2.94625 3.31205 1.975 2.9722 1.2375 3.31711C0.97297 3.44107 0.737071 3.61968 0.545 3.84141ZM13.275 1.73661L11.355 3.08212C10.6612 3.56852 10.1512 3.92606 9.7175 4.18C9.61529 4.2377 9.52987 4.32152 9.46976 4.42306C9.40966 4.5246 9.37698 4.64032 9.375 4.75863V23.7687C9.375 24.2362 9.855 24.5293 10.245 24.2766C10.6637 24.0063 11.1438 23.6702 11.725 23.2634L13.645 21.9179C14.3388 21.4315 14.8488 21.0739 15.2825 20.82C15.3847 20.7623 15.4701 20.6785 15.5302 20.5769C15.5903 20.4754 15.623 20.3597 15.625 20.2414V1.23C15.625 0.761283 15.145 0.469442 14.755 0.720855C14.3363 0.992482 13.8562 1.32854 13.275 1.73661ZM22.15 1.28053L20.5338 0.714538C19.6575 0.407536 18.9837 0.171283 18.4175 0.0196776C18.0475 -0.0801296 17.7087 0.212975 17.7087 0.59957V19.7398C17.7131 19.8932 17.7675 20.0409 17.8636 20.1598C17.9598 20.2786 18.0921 20.3619 18.24 20.3968C18.7262 20.5218 19.3113 20.7253 20.1125 21.007C22.0538 21.6879 23.025 22.0278 23.7625 21.6829C24.027 21.5589 24.2629 21.3803 24.455 21.1586C25 20.532 25 19.4556 25 17.3053V5.43706C25 3.91342 25 3.15034 24.6062 2.57803C24.2137 2.00445 23.5263 1.76315 22.1513 1.2818L22.15 1.28053Z" fill="#FF852D"/>
</svg>
