<svg width="25" height="25" viewBox="0 0 25 25" fill="none" xmlns="http://www.w3.org/2000/svg">
<path d="M24.8356 22.7999C23.2487 19.9128 20.7707 17.6632 17.8006 16.4133C19.2776 15.265 20.3686 13.6641 20.9191 11.8374C21.4696 10.0106 21.4517 8.05059 20.8678 6.23499C20.284 4.41938 19.1639 2.84022 17.6661 1.72119C16.1683 0.602163 14.3688 0 12.5226 0C10.6763 0 8.87681 0.602163 7.37903 1.72119C5.88126 2.84022 4.76112 4.41938 4.17727 6.23499C3.59343 8.05059 3.57549 10.0106 4.12599 11.8374C4.67648 13.6641 5.76752 15.265 7.24454 16.4133C4.2744 17.6632 1.79642 19.9128 0.209488 22.7999C0.111156 22.9638 0.0456187 23.1465 0.0167712 23.3372C-0.0120762 23.5278 -0.0036445 23.7226 0.0415653 23.9098C0.086775 24.0971 0.16784 24.273 0.27994 24.4271C0.392041 24.5812 0.532889 24.7103 0.69411 24.8069C0.855332 24.9034 1.03364 24.9654 1.21842 24.9891C1.40321 25.0128 1.59071 24.9977 1.76977 24.9448C1.94883 24.8919 2.1158 24.8022 2.26075 24.6811C2.4057 24.5599 2.52567 24.4098 2.61353 24.2396C4.71085 20.4819 8.41473 18.2406 12.5226 18.2406C16.6304 18.2406 20.3343 20.4831 22.4316 24.2396C22.622 24.557 22.924 24.7852 23.2738 24.876C23.6236 24.9667 23.9937 24.9129 24.3059 24.7259C24.6181 24.539 24.8479 24.2335 24.9468 23.874C25.0456 23.5146 25.0058 23.1294 24.8356 22.7999ZM6.50376 9.12211C6.50376 7.88816 6.85676 6.68191 7.51811 5.65592C8.17946 4.62992 9.11947 3.83026 10.2193 3.35804C11.3191 2.88583 12.5292 2.76228 13.6968 3.00301C14.8643 3.24374 15.9367 3.83795 16.7785 4.71048C17.6202 5.58302 18.1935 6.6947 18.4257 7.90495C18.6579 9.11519 18.5387 10.3696 18.0832 11.5097C17.6277 12.6497 16.8562 13.6241 15.8664 14.3096C14.8766 14.9952 13.713 15.3611 12.5226 15.3611C10.9268 15.3592 9.397 14.7013 8.26866 13.5316C7.14031 12.362 6.5056 10.7762 6.50376 9.12211Z" fill="#FF852D"/>
</svg>
